<?xml version="1.0" standalone="no"?>
<!DOCTYPE svg PUBLIC "-//W3C//DTD SVG 20010904//EN"
 "http://www.w3.org/TR/2001/REC-SVG-20010904/DTD/svg10.dtd">
<svg version="1.0" xmlns="http://www.w3.org/2000/svg"
 width="600.000000pt" height="200.000000pt" viewBox="0 0 600.000000 200.000000"
 preserveAspectRatio="xMidYMid meet">
<metadata>
Created by potrace 1.16, written by Peter Selinger 2001-2019
</metadata>
<g transform="translate(0.000000,200.000000) scale(0.100000,-0.100000)"
fill="#000000" stroke="none">
<path d="M2875 1846 c-39 -17 -70 -52 -90 -99 -16 -38 -34 -225 -35 -350 l0
-68 -42 -19 c-24 -11 -48 -20 -54 -20 -14 0 -28 82 -19 109 3 10 24 26 46 37
l41 18 -7 50 c-8 67 -16 73 -65 51 -46 -21 -49 -19 -59 27 -11 51 -3 65 46 84
l45 18 -7 50 c-10 80 -8 80 -125 29 -58 -25 -107 -47 -109 -49 -2 -2 13 -94
33 -205 21 -111 34 -204 30 -208 -4 -3 -9 1 -12 9 -3 8 -21 30 -39 48 -23 21
-33 38 -29 49 17 44 -57 191 -108 214 -29 14 -46 6 -148 -73 l-76 -59 75 -162
c41 -89 84 -182 94 -207 l19 -45 -68 75 c-144 160 -187 200 -218 200 -48 0
-93 -35 -119 -93 -14 -28 -25 -63 -25 -77 0 -48 49 -126 157 -250 143 -165
181 -189 247 -159 35 16 77 80 83 128 3 22 9 39 13 36 8 -5 100 64 100 75 0 4
-16 43 -36 86 -42 92 -47 111 -29 111 7 0 32 -40 56 -88 l42 -88 45 32 c24 18
46 37 49 44 2 6 49 31 104 54 63 28 99 49 99 59 0 12 11 14 55 12 38 -3 63 1
79 12 25 16 125 17 348 3 51 -4 90 -2 93 4 11 17 35 9 45 -15 6 -17 24 -29 61
-41 47 -16 53 -16 61 -2 5 9 23 35 41 59 18 24 46 64 62 90 17 27 34 48 38 48
5 0 6 4 3 9 -3 4 3 16 14 26 11 10 20 24 20 32 0 8 5 11 10 8 6 -3 10 3 10 15
0 11 6 23 13 26 7 2 26 30 42 62 16 31 37 74 48 95 l19 37 -34 15 c-61 25 -85
28 -91 11 -4 -9 -16 -16 -28 -16 -17 0 -20 4 -15 24 5 22 1 27 -49 45 -31 12
-58 21 -61 21 -2 0 -48 -66 -101 -147 -52 -82 -100 -151 -105 -154 -5 -3 -9
-9 -8 -13 1 -4 -12 -29 -29 -56 -30 -49 -32 -50 -81 -50 -27 0 -50 3 -50 8 0
23 22 82 29 77 5 -2 14 2 20 9 7 8 30 17 51 21 37 6 41 10 55 58 20 68 20 67
-20 67 -33 0 -35 2 -32 27 3 20 15 33 47 50 24 13 48 23 54 23 16 0 48 113 34
121 -12 8 -227 24 -232 18 -2 -2 -27 -76 -56 -164 -29 -88 -58 -163 -64 -167
-23 -16 -28 -6 -21 42 7 48 6 50 -18 50 -13 0 -48 -5 -77 -10 -41 -8 -56 -7
-62 2 -12 20 -9 30 12 35 11 3 17 10 14 17 -3 6 0 4 8 -4 14 -16 21 -17 87 -5
l43 8 -4 73 c-5 97 -27 124 -102 124 -28 -1 -64 -7 -81 -14z m-751 -793 c59
-70 105 -131 103 -137 -6 -19 -25 -17 -47 6 -44 46 -210 246 -210 252 0 3 11
6 24 6 19 0 48 -29 130 -127z"/>
<path d="M4013 1435 c-29 -13 -53 -27 -53 -31 0 -3 11 -19 25 -36 35 -42 31
-62 -18 -100 -39 -29 -43 -36 -34 -56 8 -17 6 -26 -8 -42 -10 -11 -21 -18 -24
-15 -4 2 -13 0 -21 -5 -9 -6 -18 -3 -26 8 -10 13 -9 19 7 30 27 19 24 26 -25
67 -39 31 -48 35 -66 25 -37 -20 -102 -83 -111 -109 -29 -75 74 -171 200 -186
14 -1 31 0 36 3 6 4 17 7 25 9 8 1 16 7 18 12 2 6 9 11 16 11 6 0 43 25 81 55
38 31 80 58 92 61 13 4 23 10 23 15 0 5 3 8 8 7 4 -1 26 10 49 25 70 45 93
128 51 183 -30 39 -46 52 -93 74 -53 26 -89 25 -152 -5z"/>
<path d="M1695 968 c-46 -107 -47 -112 -29 -126 33 -24 458 -328 472 -336 8
-5 18 7 32 39 11 26 20 53 20 60 0 8 -49 49 -109 92 l-108 78 18 43 c11 24 19
49 19 55 -1 12 -73 67 -88 67 -4 0 -18 -21 -30 -46 -24 -49 -22 -49 -74 -6
-16 13 -16 17 3 64 10 27 17 53 15 56 -2 4 -25 22 -49 40 l-45 32 -47 -112z"/>
<path d="M4168 955 c-86 -18 -161 -36 -166 -39 -5 -3 -17 5 -26 19 -20 30 -22
30 -81 5 l-46 -20 40 -54 c22 -30 52 -80 67 -110 61 -128 141 -148 409 -98
110 20 160 40 201 80 23 24 26 33 22 79 -6 65 -44 125 -98 153 -56 28 -134 25
-322 -15z"/>
</g>
</svg>
